# xmcd
#
# Track frame offsets: 
#        150
#        18955
#        32880
#        54997
#        78242
#        101847
#        131805
#        154005
#        176357
#        195892
#        226472
#
# Disc length: 3314 seconds
#
# Revision: 0
# Processed by: cddbd v1.5.1PL2 Copyright (c) Steve Scherf et al.
# Submitted via: ExactAudioCopy v0.95b4
#
DISCID=7f0cf00b
DTITLE=Electric Soul Method - The Freedom Dilemma
DYEAR=2005
DGENRE=Funk
TTITLE0=The Getaway
TTITLE1=Say It Ain't So
TTITLE2=Like The Sun
TTITLE3=Tippie Toe
TTITLE4=T.W.I.G.
TTITLE5=Flibbedy Fleeb
TTITLE6=The Night
TTITLE7=Intensions
TTITLE8=The Notion
TTITLE9=V.I.L.E. Henchman
TTITLE10=Water
EXTD=
EXTT0=
EXTT1=
EXTT2=
EXTT3=
EXTT4=
EXTT5=
EXTT6=
EXTT7=
EXTT8=
EXTT9=
EXTT10=
PLAYORDER=
